<svg xmlns="http://www.w3.org/2000/svg" width="13.998" height="13" viewBox="0 0 13.998 13">
    <path data-name="모양 763" d="m1930.881 1398.94-3.88-2.354-3.88 2.354a.419.419 0 0 1-.459-.016.39.39 0 0 1-.156-.418l1.11-4.306-3.467-2.85a.39.39 0 0 1-.127-.427.408.408 0 0 1 .362-.274l4.525-.306 1.712-4.117a.434.434 0 0 1 .761 0l1.712 4.117 4.525.306a.408.408 0 0 1 .362.274.39.39 0 0 1-.126.427l-3.467 2.85 1.11 4.306a.39.39 0 0 1-.157.418.42.42 0 0 1-.458.016zm0 0" transform="translate(-1920.002 -1386)" style="fill:#ffc508"/>
</svg>
